<svg width="25" height="24" viewBox="0 0 25 24" fill="none" xmlns="http://www.w3.org/2000/svg">
<g clip-path="url(#clip0_1_337)">
<path d="M4.517 17.841C4.6727 17.9973 4.792 18.186 4.86641 18.3937C4.94082 18.6014 4.96851 18.8229 4.9475 19.0425C4.84208 20.0589 4.64221 21.0632 4.3505 22.0425C6.443 21.558 7.721 20.997 8.3015 20.703C8.63076 20.5362 9.00993 20.4967 9.3665 20.592C10.3887 20.8645 11.4421 21.0017 12.5 21C18.494 21 23 16.7895 23 12C23 7.212 18.494 3 12.5 3C6.506 3 2 7.212 2 12C2 14.202 2.9255 16.245 4.517 17.841ZM3.7775 23.6985C3.4221 23.769 3.06555 23.8335 2.708 23.892C2.408 23.94 2.18 23.628 2.2985 23.349C2.43169 23.0349 2.55376 22.7162 2.6645 22.3935L2.669 22.3785C3.041 21.2985 3.344 20.0565 3.455 18.9C1.6145 17.055 0.5 14.64 0.5 12C0.5 6.201 5.873 1.5 12.5 1.5C19.127 1.5 24.5 6.201 24.5 12C24.5 17.799 19.127 22.5 12.5 22.5C11.3115 22.5016 10.1279 22.3473 8.9795 22.041C8.1995 22.4355 6.521 23.154 3.7775 23.6985Z" fill="white"/>
</g>
<defs>
<clipPath id="clip0_1_337">
<rect width="24" height="24" fill="white" transform="translate(0.5)"/>
</clipPath>
</defs>
</svg>
